<svg height="862" width="720" xmlns="http://www.w3.org/2000/svg">
<rect height="862" fill="#555" width="720"></rect>
<text fill="#7f7" font-family="Courier New" font-size="12" xml:space="preserve">
<tspan x="10" y="26">41 megabytes installed</tspan>
<tspan x="10" y="42"></tspan>
<tspan x="10" y="58">node_modules</tspan>
<tspan x="10" y="74">└─┬ mocha-phantomjs@4.1.0 </tspan>
<tspan x="10" y="90">  ├─┬ commander@2.9.0 </tspan>
<tspan x="10" y="106">  │ └── graceful-readlink@1.0.1 </tspan>
<tspan x="10" y="122">  ├── mocha-phantomjs-core@1.3.1 </tspan>
<tspan x="10" y="138">  └─┬ phantomjs@1.9.7-15 </tspan>
<tspan x="10" y="154">    ├── adm-zip@0.2.1 </tspan>
<tspan x="10" y="170">    ├── kew@0.1.7 </tspan>
<tspan x="10" y="186">    ├── mkdirp@0.3.5 </tspan>
<tspan x="10" y="202">    ├── ncp@0.4.2 </tspan>
<tspan x="10" y="218">    ├─┬ npmconf@0.0.24 </tspan>
<tspan x="10" y="234">    │ ├─┬ config-chain@1.1.11 </tspan>
<tspan x="10" y="250">    │ │ ├── ini@1.3.4 </tspan>
<tspan x="10" y="266">    │ │ └── proto-list@1.2.4 </tspan>
<tspan x="10" y="282">    │ ├── inherits@1.0.2 </tspan>
<tspan x="10" y="298">    │ ├── ini@1.1.0 </tspan>
<tspan x="10" y="314">    │ ├─┬ nopt@2.2.1 </tspan>
<tspan x="10" y="330">    │ │ └── abbrev@1.1.0 </tspan>
<tspan x="10" y="346">    │ ├── once@1.1.1 </tspan>
<tspan x="10" y="362">    │ ├── osenv@0.0.3 </tspan>
<tspan x="10" y="378">    │ └── semver@1.1.4 </tspan>
<tspan x="10" y="394">    ├── progress@1.1.8 </tspan>
<tspan x="10" y="410">    ├─┬ request@2.36.0 </tspan>
<tspan x="10" y="426">    │ ├── aws-sign2@0.5.0 </tspan>
<tspan x="10" y="442">    │ ├── forever-agent@0.5.2 </tspan>
<tspan x="10" y="458">    │ ├─┬ form-data@0.1.4 </tspan>
<tspan x="10" y="474">    │ │ ├── async@0.9.2 </tspan>
<tspan x="10" y="490">    │ │ └─┬ combined-stream@0.0.7 </tspan>
<tspan x="10" y="506">    │ │   └── delayed-stream@0.0.5 </tspan>
<tspan x="10" y="522">    │ ├─┬ hawk@1.0.0 </tspan>
<tspan x="10" y="538">    │ │ ├── boom@0.4.2 </tspan>
<tspan x="10" y="554">    │ │ ├── cryptiles@0.2.2 </tspan>
<tspan x="10" y="570">    │ │ ├── hoek@0.9.1 </tspan>
<tspan x="10" y="586">    │ │ └── sntp@0.2.4 </tspan>
<tspan x="10" y="602">    │ ├─┬ http-signature@0.10.1 </tspan>
<tspan x="10" y="618">    │ │ ├── asn1@0.1.11 </tspan>
<tspan x="10" y="634">    │ │ ├── assert-plus@0.1.5 </tspan>
<tspan x="10" y="650">    │ │ └── ctype@0.5.3 </tspan>
<tspan x="10" y="666">    │ ├── json-stringify-safe@5.0.1 </tspan>
<tspan x="10" y="682">    │ ├── mime@1.2.11 </tspan>
<tspan x="10" y="698">    │ ├── node-uuid@1.4.8 </tspan>
<tspan x="10" y="714">    │ ├── oauth-sign@0.3.0 </tspan>
<tspan x="10" y="730">    │ ├── qs@0.6.6 </tspan>
<tspan x="10" y="746">    │ ├─┬ tough-cookie@2.3.2 </tspan>
<tspan x="10" y="762">    │ │ └── punycode@1.4.1 </tspan>
<tspan x="10" y="778">    │ └── tunnel-agent@0.4.3 </tspan>
<tspan x="10" y="794">    ├─┬ request-progress@0.3.1 </tspan>
<tspan x="10" y="810">    │ └── throttleit@0.0.2 </tspan>
<tspan x="10" y="826">    ├── rimraf@2.2.8 </tspan>
<tspan x="10" y="842">    └── which@1.0.9</tspan>
</text>
</svg>
